<mxfile host="app.diagrams.net" modified="2023-10-29T20:43:32.606Z" agent="Mozilla/5.0 (Windows NT 10.0; Win64; x64) AppleWebKit/537.36 (KHTML, like Gecko) Chrome/117.0.0.0 Safari/537.36" etag="Pv-lo8DUwxgDgn8TMFSM" version="22.0.8" type="device">
  <diagram id="C5RBs43oDa-KdzZeNtuy" name="Page-1">
    <mxGraphModel dx="1434" dy="800" grid="1" gridSize="10" guides="1" tooltips="1" connect="1" arrows="1" fold="1" page="1" pageScale="1" pageWidth="827" pageHeight="1169" math="0" shadow="0">
      <root>
        <mxCell id="WIyWlLk6GJQsqaUBKTNV-0" />
        <mxCell id="WIyWlLk6GJQsqaUBKTNV-1" parent="WIyWlLk6GJQsqaUBKTNV-0" />
        <mxCell id="ZRFxwYFZkm83JXmqlM6H-33" style="edgeStyle=orthogonalEdgeStyle;rounded=0;orthogonalLoop=1;jettySize=auto;html=1;exitX=1;exitY=0.5;exitDx=0;exitDy=0;entryX=0;entryY=0.5;entryDx=0;entryDy=0;" edge="1" parent="WIyWlLk6GJQsqaUBKTNV-1" source="ZRFxwYFZkm83JXmqlM6H-25" target="ZRFxwYFZkm83JXmqlM6H-36">
          <mxGeometry relative="1" as="geometry">
            <mxPoint x="250" y="500" as="targetPoint" />
            <mxPoint x="140" y="375" as="sourcePoint" />
          </mxGeometry>
        </mxCell>
        <mxCell id="ZRFxwYFZkm83JXmqlM6H-34" value="Não" style="edgeLabel;html=1;align=center;verticalAlign=middle;resizable=0;points=[];" vertex="1" connectable="0" parent="ZRFxwYFZkm83JXmqlM6H-33">
          <mxGeometry x="-0.0355" y="2" relative="1" as="geometry">
            <mxPoint as="offset" />
          </mxGeometry>
        </mxCell>
        <mxCell id="ZRFxwYFZkm83JXmqlM6H-25" value="Tem conta?" style="rhombus;whiteSpace=wrap;html=1;" vertex="1" parent="WIyWlLk6GJQsqaUBKTNV-1">
          <mxGeometry x="20" y="330" width="80" height="80" as="geometry" />
        </mxCell>
        <mxCell id="ZRFxwYFZkm83JXmqlM6H-48" style="edgeStyle=orthogonalEdgeStyle;rounded=0;orthogonalLoop=1;jettySize=auto;html=1;exitX=0.5;exitY=1;exitDx=0;exitDy=0;entryX=0.5;entryY=0;entryDx=0;entryDy=0;" edge="1" parent="WIyWlLk6GJQsqaUBKTNV-1" source="ZRFxwYFZkm83JXmqlM6H-28" target="ZRFxwYFZkm83JXmqlM6H-25">
          <mxGeometry relative="1" as="geometry" />
        </mxCell>
        <mxCell id="ZRFxwYFZkm83JXmqlM6H-28" value="Login" style="rounded=1;whiteSpace=wrap;html=1;fontSize=12;glass=0;strokeWidth=1;shadow=0;" vertex="1" parent="WIyWlLk6GJQsqaUBKTNV-1">
          <mxGeometry y="190" width="120" height="40" as="geometry" />
        </mxCell>
        <mxCell id="ZRFxwYFZkm83JXmqlM6H-37" style="edgeStyle=orthogonalEdgeStyle;rounded=0;orthogonalLoop=1;jettySize=auto;html=1;exitX=0.5;exitY=0;exitDx=0;exitDy=0;entryX=1;entryY=0.5;entryDx=0;entryDy=0;" edge="1" parent="WIyWlLk6GJQsqaUBKTNV-1" source="ZRFxwYFZkm83JXmqlM6H-36" target="ZRFxwYFZkm83JXmqlM6H-28">
          <mxGeometry relative="1" as="geometry" />
        </mxCell>
        <mxCell id="ZRFxwYFZkm83JXmqlM6H-36" value="Criar Conta" style="rounded=1;whiteSpace=wrap;html=1;fontSize=12;glass=0;strokeWidth=1;shadow=0;" vertex="1" parent="WIyWlLk6GJQsqaUBKTNV-1">
          <mxGeometry x="170" y="350" width="120" height="40" as="geometry" />
        </mxCell>
        <mxCell id="ZRFxwYFZkm83JXmqlM6H-38" value="Tela Principal" style="rounded=1;whiteSpace=wrap;html=1;fontSize=12;glass=0;strokeWidth=1;shadow=0;" vertex="1" parent="WIyWlLk6GJQsqaUBKTNV-1">
          <mxGeometry y="600" width="120" height="40" as="geometry" />
        </mxCell>
        <mxCell id="ZRFxwYFZkm83JXmqlM6H-46" style="edgeStyle=orthogonalEdgeStyle;rounded=0;orthogonalLoop=1;jettySize=auto;html=1;exitX=0.5;exitY=1;exitDx=0;exitDy=0;entryX=0.5;entryY=0;entryDx=0;entryDy=0;" edge="1" parent="WIyWlLk6GJQsqaUBKTNV-1" source="ZRFxwYFZkm83JXmqlM6H-39" target="ZRFxwYFZkm83JXmqlM6H-38">
          <mxGeometry relative="1" as="geometry" />
        </mxCell>
        <mxCell id="ZRFxwYFZkm83JXmqlM6H-39" value="Guardar&lt;br&gt;Usuário e&lt;br&gt;Senha" style="shape=parallelogram;perimeter=parallelogramPerimeter;whiteSpace=wrap;html=1;fixedSize=1;" vertex="1" parent="WIyWlLk6GJQsqaUBKTNV-1">
          <mxGeometry y="500" width="120" height="60" as="geometry" />
        </mxCell>
        <mxCell id="ZRFxwYFZkm83JXmqlM6H-43" style="edgeStyle=orthogonalEdgeStyle;rounded=0;orthogonalLoop=1;jettySize=auto;html=1;exitX=0.5;exitY=1;exitDx=0;exitDy=0;entryX=0.5;entryY=0;entryDx=0;entryDy=0;" edge="1" parent="WIyWlLk6GJQsqaUBKTNV-1" source="ZRFxwYFZkm83JXmqlM6H-42" target="ZRFxwYFZkm83JXmqlM6H-28">
          <mxGeometry relative="1" as="geometry" />
        </mxCell>
        <mxCell id="ZRFxwYFZkm83JXmqlM6H-42" value="Começo" style="ellipse;whiteSpace=wrap;html=1;" vertex="1" parent="WIyWlLk6GJQsqaUBKTNV-1">
          <mxGeometry x="15" y="70" width="110" height="60" as="geometry" />
        </mxCell>
        <mxCell id="ZRFxwYFZkm83JXmqlM6H-45" style="edgeStyle=orthogonalEdgeStyle;rounded=0;orthogonalLoop=1;jettySize=auto;html=1;exitX=0.5;exitY=1;exitDx=0;exitDy=0;entryX=0.5;entryY=0;entryDx=0;entryDy=0;" edge="1" parent="WIyWlLk6GJQsqaUBKTNV-1" source="ZRFxwYFZkm83JXmqlM6H-25" target="ZRFxwYFZkm83JXmqlM6H-39">
          <mxGeometry relative="1" as="geometry">
            <mxPoint x="60" y="480" as="targetPoint" />
          </mxGeometry>
        </mxCell>
        <mxCell id="ZRFxwYFZkm83JXmqlM6H-47" value="Sim" style="edgeLabel;html=1;align=center;verticalAlign=middle;resizable=0;points=[];" vertex="1" connectable="0" parent="ZRFxwYFZkm83JXmqlM6H-45">
          <mxGeometry x="-0.1613" y="3" relative="1" as="geometry">
            <mxPoint as="offset" />
          </mxGeometry>
        </mxCell>
        <mxCell id="ZRFxwYFZkm83JXmqlM6H-58" style="edgeStyle=orthogonalEdgeStyle;rounded=0;orthogonalLoop=1;jettySize=auto;html=1;exitX=0.5;exitY=1;exitDx=0;exitDy=0;entryX=0.5;entryY=0;entryDx=0;entryDy=0;" edge="1" parent="WIyWlLk6GJQsqaUBKTNV-1" source="ZRFxwYFZkm83JXmqlM6H-51" target="ZRFxwYFZkm83JXmqlM6H-55">
          <mxGeometry relative="1" as="geometry" />
        </mxCell>
        <mxCell id="ZRFxwYFZkm83JXmqlM6H-51" value="Adicionar Wallet" style="rounded=1;whiteSpace=wrap;html=1;" vertex="1" parent="WIyWlLk6GJQsqaUBKTNV-1">
          <mxGeometry x="414" y="190" width="120" height="60" as="geometry" />
        </mxCell>
        <mxCell id="ZRFxwYFZkm83JXmqlM6H-54" style="edgeStyle=orthogonalEdgeStyle;rounded=0;orthogonalLoop=1;jettySize=auto;html=1;exitX=0.5;exitY=1;exitDx=0;exitDy=0;entryX=0.5;entryY=0;entryDx=0;entryDy=0;" edge="1" parent="WIyWlLk6GJQsqaUBKTNV-1" source="ZRFxwYFZkm83JXmqlM6H-52" target="ZRFxwYFZkm83JXmqlM6H-51">
          <mxGeometry relative="1" as="geometry" />
        </mxCell>
        <mxCell id="ZRFxwYFZkm83JXmqlM6H-52" value="Tela Principal" style="ellipse;whiteSpace=wrap;html=1;" vertex="1" parent="WIyWlLk6GJQsqaUBKTNV-1">
          <mxGeometry x="414" y="70" width="120" height="80" as="geometry" />
        </mxCell>
        <mxCell id="ZRFxwYFZkm83JXmqlM6H-53" value="&lt;font style=&quot;font-size: 19px;&quot;&gt;&lt;b&gt;Fluxograma Login&lt;/b&gt;&lt;/font&gt;" style="text;html=1;strokeColor=none;fillColor=none;align=center;verticalAlign=middle;whiteSpace=wrap;rounded=0;" vertex="1" parent="WIyWlLk6GJQsqaUBKTNV-1">
          <mxGeometry y="20" width="220" height="30" as="geometry" />
        </mxCell>
        <mxCell id="ZRFxwYFZkm83JXmqlM6H-55" value="Ler Wallets" style="shape=parallelogram;perimeter=parallelogramPerimeter;whiteSpace=wrap;html=1;fixedSize=1;" vertex="1" parent="WIyWlLk6GJQsqaUBKTNV-1">
          <mxGeometry x="414" y="300" width="120" height="60" as="geometry" />
        </mxCell>
        <mxCell id="ZRFxwYFZkm83JXmqlM6H-82" style="edgeStyle=orthogonalEdgeStyle;rounded=0;orthogonalLoop=1;jettySize=auto;html=1;exitX=0.5;exitY=1;exitDx=0;exitDy=0;exitPerimeter=0;entryX=0.5;entryY=0;entryDx=0;entryDy=0;" edge="1" parent="WIyWlLk6GJQsqaUBKTNV-1" source="ZRFxwYFZkm83JXmqlM6H-57" target="ZRFxwYFZkm83JXmqlM6H-83">
          <mxGeometry relative="1" as="geometry">
            <mxPoint x="474" y="610" as="targetPoint" />
          </mxGeometry>
        </mxCell>
        <mxCell id="ZRFxwYFZkm83JXmqlM6H-57" value="Base de Usuarios" style="shape=cylinder3;whiteSpace=wrap;html=1;boundedLbl=1;backgroundOutline=1;size=15;" vertex="1" parent="WIyWlLk6GJQsqaUBKTNV-1">
          <mxGeometry x="444" y="460" width="60" height="80" as="geometry" />
        </mxCell>
        <mxCell id="ZRFxwYFZkm83JXmqlM6H-60" value="" style="verticalLabelPosition=bottom;verticalAlign=top;html=1;shape=mxgraph.flowchart.or;" vertex="1" parent="WIyWlLk6GJQsqaUBKTNV-1">
          <mxGeometry x="459" y="400" width="30" height="30" as="geometry" />
        </mxCell>
        <mxCell id="ZRFxwYFZkm83JXmqlM6H-61" style="edgeStyle=orthogonalEdgeStyle;rounded=0;orthogonalLoop=1;jettySize=auto;html=1;exitX=0.5;exitY=1;exitDx=0;exitDy=0;entryX=0.5;entryY=0;entryDx=0;entryDy=0;entryPerimeter=0;" edge="1" parent="WIyWlLk6GJQsqaUBKTNV-1" source="ZRFxwYFZkm83JXmqlM6H-55" target="ZRFxwYFZkm83JXmqlM6H-60">
          <mxGeometry relative="1" as="geometry" />
        </mxCell>
        <mxCell id="ZRFxwYFZkm83JXmqlM6H-62" style="edgeStyle=orthogonalEdgeStyle;rounded=0;orthogonalLoop=1;jettySize=auto;html=1;exitX=0.5;exitY=1;exitDx=0;exitDy=0;exitPerimeter=0;entryX=0.5;entryY=0;entryDx=0;entryDy=0;entryPerimeter=0;" edge="1" parent="WIyWlLk6GJQsqaUBKTNV-1" source="ZRFxwYFZkm83JXmqlM6H-60" target="ZRFxwYFZkm83JXmqlM6H-57">
          <mxGeometry relative="1" as="geometry" />
        </mxCell>
        <mxCell id="ZRFxwYFZkm83JXmqlM6H-63" value="Login Ativo" style="shape=parallelogram;perimeter=parallelogramPerimeter;whiteSpace=wrap;html=1;fixedSize=1;" vertex="1" parent="WIyWlLk6GJQsqaUBKTNV-1">
          <mxGeometry x="560" y="80" width="120" height="60" as="geometry" />
        </mxCell>
        <mxCell id="ZRFxwYFZkm83JXmqlM6H-64" style="edgeStyle=orthogonalEdgeStyle;rounded=0;orthogonalLoop=1;jettySize=auto;html=1;exitX=0.5;exitY=1;exitDx=0;exitDy=0;entryX=1;entryY=0.5;entryDx=0;entryDy=0;entryPerimeter=0;" edge="1" parent="WIyWlLk6GJQsqaUBKTNV-1" source="ZRFxwYFZkm83JXmqlM6H-63" target="ZRFxwYFZkm83JXmqlM6H-60">
          <mxGeometry relative="1" as="geometry" />
        </mxCell>
        <mxCell id="ZRFxwYFZkm83JXmqlM6H-65" value="&lt;font style=&quot;font-size: 19px;&quot;&gt;&lt;b&gt;Fluxograma Adicionar Wallet&lt;/b&gt;&lt;/font&gt;" style="text;html=1;strokeColor=none;fillColor=none;align=center;verticalAlign=middle;whiteSpace=wrap;rounded=0;" vertex="1" parent="WIyWlLk6GJQsqaUBKTNV-1">
          <mxGeometry x="414" y="10" width="220" height="50" as="geometry" />
        </mxCell>
        <mxCell id="ZRFxwYFZkm83JXmqlM6H-66" style="edgeStyle=orthogonalEdgeStyle;rounded=0;orthogonalLoop=1;jettySize=auto;html=1;exitX=0.5;exitY=1;exitDx=0;exitDy=0;entryX=0.5;entryY=0;entryDx=0;entryDy=0;" edge="1" parent="WIyWlLk6GJQsqaUBKTNV-1" source="ZRFxwYFZkm83JXmqlM6H-67" target="ZRFxwYFZkm83JXmqlM6H-70">
          <mxGeometry relative="1" as="geometry" />
        </mxCell>
        <mxCell id="ZRFxwYFZkm83JXmqlM6H-67" value="Transferir Saldo" style="rounded=1;whiteSpace=wrap;html=1;" vertex="1" parent="WIyWlLk6GJQsqaUBKTNV-1">
          <mxGeometry x="720" y="190" width="120" height="60" as="geometry" />
        </mxCell>
        <mxCell id="ZRFxwYFZkm83JXmqlM6H-68" style="edgeStyle=orthogonalEdgeStyle;rounded=0;orthogonalLoop=1;jettySize=auto;html=1;exitX=0.5;exitY=1;exitDx=0;exitDy=0;entryX=0.5;entryY=0;entryDx=0;entryDy=0;" edge="1" parent="WIyWlLk6GJQsqaUBKTNV-1" source="ZRFxwYFZkm83JXmqlM6H-69" target="ZRFxwYFZkm83JXmqlM6H-67">
          <mxGeometry relative="1" as="geometry" />
        </mxCell>
        <mxCell id="ZRFxwYFZkm83JXmqlM6H-69" value="Tela Principal" style="ellipse;whiteSpace=wrap;html=1;" vertex="1" parent="WIyWlLk6GJQsqaUBKTNV-1">
          <mxGeometry x="720" y="70" width="120" height="80" as="geometry" />
        </mxCell>
        <mxCell id="ZRFxwYFZkm83JXmqlM6H-70" value="Ler WalletFrom e WalletTo" style="shape=parallelogram;perimeter=parallelogramPerimeter;whiteSpace=wrap;html=1;fixedSize=1;" vertex="1" parent="WIyWlLk6GJQsqaUBKTNV-1">
          <mxGeometry x="715" y="300" width="130" height="60" as="geometry" />
        </mxCell>
        <mxCell id="ZRFxwYFZkm83JXmqlM6H-73" style="edgeStyle=orthogonalEdgeStyle;rounded=0;orthogonalLoop=1;jettySize=auto;html=1;exitX=0.5;exitY=1;exitDx=0;exitDy=0;entryX=0.5;entryY=0;entryDx=0;entryDy=0;" edge="1" parent="WIyWlLk6GJQsqaUBKTNV-1" source="ZRFxwYFZkm83JXmqlM6H-70" target="ZRFxwYFZkm83JXmqlM6H-79">
          <mxGeometry relative="1" as="geometry">
            <mxPoint x="780" y="400" as="targetPoint" />
          </mxGeometry>
        </mxCell>
        <mxCell id="ZRFxwYFZkm83JXmqlM6H-77" value="&lt;font style=&quot;font-size: 19px;&quot;&gt;&lt;b&gt;Fluxograma Transferir Saldo&lt;/b&gt;&lt;/font&gt;" style="text;html=1;strokeColor=none;fillColor=none;align=center;verticalAlign=middle;whiteSpace=wrap;rounded=0;" vertex="1" parent="WIyWlLk6GJQsqaUBKTNV-1">
          <mxGeometry x="715" y="10" width="220" height="50" as="geometry" />
        </mxCell>
        <mxCell id="ZRFxwYFZkm83JXmqlM6H-80" style="edgeStyle=orthogonalEdgeStyle;rounded=0;orthogonalLoop=1;jettySize=auto;html=1;exitX=1;exitY=0.5;exitDx=0;exitDy=0;entryX=1;entryY=0.5;entryDx=0;entryDy=0;" edge="1" parent="WIyWlLk6GJQsqaUBKTNV-1" source="ZRFxwYFZkm83JXmqlM6H-79" target="ZRFxwYFZkm83JXmqlM6H-67">
          <mxGeometry relative="1" as="geometry">
            <mxPoint x="910" y="445" as="targetPoint" />
          </mxGeometry>
        </mxCell>
        <mxCell id="ZRFxwYFZkm83JXmqlM6H-86" value="Não" style="edgeLabel;html=1;align=center;verticalAlign=middle;resizable=0;points=[];" vertex="1" connectable="0" parent="ZRFxwYFZkm83JXmqlM6H-80">
          <mxGeometry x="-0.1736" y="-1" relative="1" as="geometry">
            <mxPoint as="offset" />
          </mxGeometry>
        </mxCell>
        <mxCell id="ZRFxwYFZkm83JXmqlM6H-81" style="edgeStyle=orthogonalEdgeStyle;rounded=0;orthogonalLoop=1;jettySize=auto;html=1;exitX=0.5;exitY=1;exitDx=0;exitDy=0;" edge="1" parent="WIyWlLk6GJQsqaUBKTNV-1" source="ZRFxwYFZkm83JXmqlM6H-79" target="ZRFxwYFZkm83JXmqlM6H-91">
          <mxGeometry relative="1" as="geometry">
            <mxPoint x="780" y="560" as="targetPoint" />
          </mxGeometry>
        </mxCell>
        <mxCell id="ZRFxwYFZkm83JXmqlM6H-85" value="Sim" style="edgeLabel;html=1;align=center;verticalAlign=middle;resizable=0;points=[];" vertex="1" connectable="0" parent="ZRFxwYFZkm83JXmqlM6H-81">
          <mxGeometry x="0.007" y="2" relative="1" as="geometry">
            <mxPoint x="2" y="1" as="offset" />
          </mxGeometry>
        </mxCell>
        <mxCell id="ZRFxwYFZkm83JXmqlM6H-79" value="Há saldo suficiente&lt;br&gt;na WalletFrom?" style="rhombus;whiteSpace=wrap;html=1;" vertex="1" parent="WIyWlLk6GJQsqaUBKTNV-1">
          <mxGeometry x="710" y="400" width="140" height="90" as="geometry" />
        </mxCell>
        <mxCell id="ZRFxwYFZkm83JXmqlM6H-83" value="Tela Principal" style="rounded=1;whiteSpace=wrap;html=1;fontSize=12;glass=0;strokeWidth=1;shadow=0;" vertex="1" parent="WIyWlLk6GJQsqaUBKTNV-1">
          <mxGeometry x="414" y="600" width="120" height="40" as="geometry" />
        </mxCell>
        <mxCell id="ZRFxwYFZkm83JXmqlM6H-90" value="Tela Principal" style="rounded=1;whiteSpace=wrap;html=1;fontSize=12;glass=0;strokeWidth=1;shadow=0;" vertex="1" parent="WIyWlLk6GJQsqaUBKTNV-1">
          <mxGeometry x="720" y="600" width="120" height="40" as="geometry" />
        </mxCell>
        <mxCell id="ZRFxwYFZkm83JXmqlM6H-93" style="edgeStyle=orthogonalEdgeStyle;rounded=0;orthogonalLoop=1;jettySize=auto;html=1;exitX=0.5;exitY=1;exitDx=0;exitDy=0;entryX=0.5;entryY=0;entryDx=0;entryDy=0;" edge="1" parent="WIyWlLk6GJQsqaUBKTNV-1" source="ZRFxwYFZkm83JXmqlM6H-91" target="ZRFxwYFZkm83JXmqlM6H-90">
          <mxGeometry relative="1" as="geometry" />
        </mxCell>
        <mxCell id="ZRFxwYFZkm83JXmqlM6H-91" value="Conclui Operação" style="rounded=1;whiteSpace=wrap;html=1;fontSize=12;glass=0;strokeWidth=1;shadow=0;" vertex="1" parent="WIyWlLk6GJQsqaUBKTNV-1">
          <mxGeometry x="720" y="540" width="120" height="40" as="geometry" />
        </mxCell>
      </root>
    </mxGraphModel>
  </diagram>
</mxfile>
